<?xml version="1.0" standalone="no"?>
<!DOCTYPE svg PUBLIC "-//W3C//DTD SVG 20010904//EN"
 "http://www.w3.org/TR/2001/REC-SVG-20010904/DTD/svg10.dtd">
<svg version="1.0" xmlns="http://www.w3.org/2000/svg"
 width="512.000000pt" height="512.000000pt" viewBox="0 0 512.000000 512.000000"
 preserveAspectRatio="xMidYMid meet">
<metadata>
Created by potrace 1.16, written by Peter Selinger 2001-2019
</metadata>
<g transform="translate(0.000000,512.000000) scale(0.100000,-0.100000)"
fill="#000000" stroke="none">
<path d="M1140 3819 c-472 -101 -831 -486 -914 -978 -19 -113 -22 -573 -5
-697 64 -461 343 -837 742 -1000 141 -57 249 -77 422 -78 211 0 352 32 535
124 284 143 502 403 595 708 6 22 5 22 -82 22 -127 0 -137 -8 -234 -173 -115
-198 -337 -366 -561 -427 -156 -42 -351 -42 -506 0 -398 109 -675 469 -699
908 l-6 112 1067 0 1068 0 -4 263 c-4 243 -6 269 -30 358 -113 421 -417 727
-840 845 -81 23 -117 27 -273 30 -153 3 -194 1 -275 -17z m485 -228 c44 -12
125 -43 180 -70 192 -95 341 -244 435 -436 68 -137 91 -230 97 -392 l6 -133
-957 0 -956 0 0 43 c0 77 22 221 46 307 106 370 379 628 737 696 104 19 310
12 412 -15z"/>
<path d="M2570 3734 c0 -8 169 -231 830 -1100 l138 -180 -509 -670 -509 -669
91 -3 c118 -4 173 14 239 76 27 26 223 277 435 557 213 281 391 510 395 510 5
0 185 -232 399 -515 215 -283 412 -534 437 -558 60 -55 123 -74 238 -70 l86 3
-509 669 -509 670 138 180 c661 869 830 1092 830 1100 0 14 -201 1 -241 -17
-20 -8 -55 -31 -77 -51 -22 -21 -208 -257 -413 -526 -204 -270 -375 -490 -379
-490 -4 0 -175 220 -379 490 -205 269 -391 506 -413 526 -22 20 -57 43 -77 51
-40 18 -241 31 -241 17z"/>
</g>
</svg>
